midi.Pattern(format=1, resolution=384, tracks=\
[midi.Track(\
  [midi.TrackNameEvent(tick=0, text='control track', data=[99, 111, 110, 116, 114, 111, 108, 32, 116, 114, 97, 99, 107]),
   midi.TextMetaEvent(tick=0, text='creator: ', data=[99, 114, 101, 97, 116, 111, 114, 58, 32]),
   midi.TextMetaEvent(tick=0, text='GNU LilyPond 2.16.1           ', data=[71, 78, 85, 32, 76, 105, 108, 121, 80, 111, 110, 100, 32, 50, 46, 49, 54, 46, 49, 32, 32, 32, 32, 32, 32, 32, 32, 32, 32, 32]),
   midi.TimeSignatureEvent(tick=0, data=[4, 2, 18, 8]),
   midi.SetTempoEvent(tick=0, data=[12, 53, 0]),
   midi.EndOfTrackEvent(tick=0, data=[])]),
 midi.Track(\
  [midi.TrackNameEvent(tick=0, text='one:', data=[111, 110, 101, 58]),
   midi.KeySignatureEvent(tick=0, data=[0, 0]),
   midi.NoteOnEvent(tick=96, channel=0, data=[60, 90]),
   midi.NoteOnEvent(tick=96, channel=0, data=[60, 0]),
   midi.NoteOnEvent(tick=0, channel=0, data=[62, 90]),
   midi.NoteOnEvent(tick=96, channel=0, data=[62, 0]),
   midi.NoteOnEvent(tick=0, channel=0, data=[64, 90]),
   midi.NoteOnEvent(tick=96, channel=0, data=[64, 0]),
   midi.NoteOnEvent(tick=0, channel=0, data=[65, 90]),
   midi.NoteOnEvent(tick=96, channel=0, data=[65, 0]),
   midi.NoteOnEvent(tick=0, channel=0, data=[62, 90]),
   midi.NoteOnEvent(tick=96, channel=0, data=[62, 0]),
   midi.NoteOnEvent(tick=0, channel=0, data=[64, 90]),
   midi.NoteOnEvent(tick=96, channel=0, data=[64, 0]),
   midi.NoteOnEvent(tick=0, channel=0, data=[60, 90]),
   midi.NoteOnEvent(tick=96, channel=0, data=[60, 0]),
   midi.NoteOnEvent(tick=0, channel=0, data=[67, 90]),
   midi.NoteOnEvent(tick=192, channel=0, data=[67, 0]),
   midi.NoteOnEvent(tick=0, channel=0, data=[72, 90]),
   midi.NoteOnEvent(tick=192, channel=0, data=[72, 0]),
   midi.NoteOnEvent(tick=0, channel=0, data=[71, 90]),
   midi.NoteOnEvent(tick=192, channel=0, data=[71, 0]),
   midi.NoteOnEvent(tick=0, channel=0, data=[72, 90]),
   midi.NoteOnEvent(tick=192, channel=0, data=[72, 0]),
   midi.NoteOnEvent(tick=0, channel=0, data=[74, 90]),
   midi.NoteOnEvent(tick=96, channel=0, data=[74, 0]),
   midi.NoteOnEvent(tick=0, channel=0, data=[67, 90]),
   midi.NoteOnEvent(tick=96, channel=0, data=[67, 0]),
   midi.NoteOnEvent(tick=0, channel=0, data=[69, 90]),
   midi.NoteOnEvent(tick=96, channel=0, data=[69, 0]),
   midi.NoteOnEvent(tick=0, channel=0, data=[71, 90]),
   midi.NoteOnEvent(tick=96, channel=0, data=[71, 0]),
   midi.NoteOnEvent(tick=0, channel=0, data=[72, 90]),
   midi.NoteOnEvent(tick=96, channel=0, data=[72, 0]),
   midi.NoteOnEvent(tick=0, channel=0, data=[69, 90]),
   midi.NoteOnEvent(tick=96, channel=0, data=[69, 0]),
   midi.NoteOnEvent(tick=0, channel=0, data=[71, 90]),
   midi.NoteOnEvent(tick=96, channel=0, data=[71, 0]),
   midi.NoteOnEvent(tick=0, channel=0, data=[67, 90]),
   midi.NoteOnEvent(tick=96, channel=0, data=[67, 0]),
   midi.NoteOnEvent(tick=0, channel=0, data=[74, 90]),
   midi.NoteOnEvent(tick=192, channel=0, data=[74, 0]),
   midi.NoteOnEvent(tick=0, channel=0, data=[79, 90]),
   midi.NoteOnEvent(tick=192, channel=0, data=[79, 0]),
   midi.NoteOnEvent(tick=0, channel=0, data=[77, 90]),
   midi.NoteOnEvent(tick=192, channel=0, data=[77, 0]),
   midi.NoteOnEvent(tick=0, channel=0, data=[79, 90]),
   midi.NoteOnEvent(tick=192, channel=0, data=[79, 0]),
   midi.NoteOnEvent(tick=0, channel=0, data=[76, 90]),
   midi.NoteOnEvent(tick=96, channel=0, data=[76, 0]),
   midi.NoteOnEvent(tick=0, channel=0, data=[81, 90]),
   midi.NoteOnEvent(tick=96, channel=0, data=[81, 0]),
   midi.NoteOnEvent(tick=0, channel=0, data=[79, 90]),
   midi.NoteOnEvent(tick=96, channel=0, data=[79, 0]),
   midi.NoteOnEvent(tick=0, channel=0, data=[77, 90]),
   midi.NoteOnEvent(tick=96, channel=0, data=[77, 0]),
   midi.NoteOnEvent(tick=0, channel=0, data=[76, 90]),
   midi.NoteOnEvent(tick=96, channel=0, data=[76, 0]),
   midi.NoteOnEvent(tick=0, channel=0, data=[79, 90]),
   midi.NoteOnEvent(tick=96, channel=0, data=[79, 0]),
   midi.NoteOnEvent(tick=0, channel=0, data=[77, 90]),
   midi.NoteOnEvent(tick=96, channel=0, data=[77, 0]),
   midi.NoteOnEvent(tick=0, channel=0, data=[81, 90]),
   midi.NoteOnEvent(tick=96, channel=0, data=[81, 0]),
   midi.NoteOnEvent(tick=0, channel=0, data=[79, 90]),
   midi.NoteOnEvent(tick=96, channel=0, data=[79, 0]),
   midi.NoteOnEvent(tick=0, channel=0, data=[77, 90]),
   midi.NoteOnEvent(tick=96, channel=0, data=[77, 0]),
   midi.NoteOnEvent(tick=0, channel=0, data=[76, 90]),
   midi.NoteOnEvent(tick=96, channel=0, data=[76, 0]),
   midi.NoteOnEvent(tick=0, channel=0, data=[74, 90]),
   midi.NoteOnEvent(tick=96, channel=0, data=[74, 0]),
   midi.NoteOnEvent(tick=0, channel=0, data=[72, 90]),
   midi.NoteOnEvent(tick=96, channel=0, data=[72, 0]),
   midi.NoteOnEvent(tick=0, channel=0, data=[76, 90]),
   midi.NoteOnEvent(tick=96, channel=0, data=[76, 0]),
   midi.NoteOnEvent(tick=0, channel=0, data=[74, 90]),
   midi.NoteOnEvent(tick=96, channel=0, data=[74, 0]),
   midi.NoteOnEvent(tick=0, channel=0, data=[77, 90]),
   midi.NoteOnEvent(tick=96, channel=0, data=[77, 0]),
   midi.NoteOnEvent(tick=0, channel=0, data=[76, 90]),
   midi.NoteOnEvent(tick=96, channel=0, data=[76, 0]),
   midi.NoteOnEvent(tick=0, channel=0, data=[74, 90]),
   midi.NoteOnEvent(tick=96, channel=0, data=[74, 0]),
   midi.NoteOnEvent(tick=0, channel=0, data=[72, 90]),
   midi.NoteOnEvent(tick=96, channel=0, data=[72, 0]),
   midi.NoteOnEvent(tick=0, channel=0, data=[71, 90]),
   midi.NoteOnEvent(tick=96, channel=0, data=[71, 0]),
   midi.NoteOnEvent(tick=0, channel=0, data=[69, 90]),
   midi.NoteOnEvent(tick=96, channel=0, data=[69, 0]),
   midi.NoteOnEvent(tick=0, channel=0, data=[72, 90]),
   midi.NoteOnEvent(tick=96, channel=0, data=[72, 0]),
   midi.NoteOnEvent(tick=0, channel=0, data=[71, 90]),
   midi.NoteOnEvent(tick=96, channel=0, data=[71, 0]),
   midi.NoteOnEvent(tick=0, channel=0, data=[74, 90]),
   midi.NoteOnEvent(tick=96, channel=0, data=[74, 0]),
   midi.NoteOnEvent(tick=0, channel=0, data=[72, 90]),
   midi.NoteOnEvent(tick=96, channel=0, data=[72, 0]),
   midi.NoteOnEvent(tick=0, channel=0, data=[71, 90]),
   midi.NoteOnEvent(tick=96, channel=0, data=[71, 0]),
   midi.NoteOnEvent(tick=0, channel=0, data=[69, 90]),
   midi.NoteOnEvent(tick=96, channel=0, data=[69, 0]),
   midi.NoteOnEvent(tick=0, channel=0, data=[67, 90]),
   midi.NoteOnEvent(tick=96, channel=0, data=[67, 0]),
   midi.NoteOnEvent(tick=0, channel=0, data=[66, 90]),
   midi.NoteOnEvent(tick=96, channel=0, data=[66, 0]),
   midi.NoteOnEvent(tick=0, channel=0, data=[69, 90]),
   midi.NoteOnEvent(tick=96, channel=0, data=[69, 0]),
   midi.NoteOnEvent(tick=0, channel=0, data=[67, 90]),
   midi.NoteOnEvent(tick=96, channel=0, data=[67, 0]),
   midi.NoteOnEvent(tick=0, channel=0, data=[71, 90]),
   midi.NoteOnEvent(tick=96, channel=0, data=[71, 0]),
   midi.NoteOnEvent(tick=0, channel=0, data=[69, 90]),
   midi.NoteOnEvent(tick=192, channel=0, data=[69, 0]),
   midi.NoteOnEvent(tick=0, channel=0, data=[62, 90]),
   midi.NoteOnEvent(tick=192, channel=0, data=[62, 0]),
   midi.NoteOnEvent(tick=0, channel=0, data=[72, 90]),
   midi.NoteOnEvent(tick=288, channel=0, data=[72, 0]),
   midi.NoteOnEvent(tick=0, channel=0, data=[74, 90]),
   midi.NoteOnEvent(tick=96, channel=0, data=[74, 0]),
   midi.NoteOnEvent(tick=0, channel=0, data=[71, 90]),
   midi.NoteOnEvent(tick=96, channel=0, data=[71, 0]),
   midi.NoteOnEvent(tick=0, channel=0, data=[69, 90]),
   midi.NoteOnEvent(tick=96, channel=0, data=[69, 0]),
   midi.NoteOnEvent(tick=0, channel=0, data=[67, 90]),
   midi.NoteOnEvent(tick=96, channel=0, data=[67, 0]),
   midi.NoteOnEvent(tick=0, channel=0, data=[66, 90]),
   midi.NoteOnEvent(tick=96, channel=0, data=[66, 0]),
   midi.NoteOnEvent(tick=0, channel=0, data=[64, 90]),
   midi.NoteOnEvent(tick=96, channel=0, data=[64, 0]),
   midi.NoteOnEvent(tick=0, channel=0, data=[67, 90]),
   midi.NoteOnEvent(tick=96, channel=0, data=[67, 0]),
   midi.NoteOnEvent(tick=0, channel=0, data=[66, 90]),
   midi.NoteOnEvent(tick=96, channel=0, data=[66, 0]),
   midi.NoteOnEvent(tick=0, channel=0, data=[69, 90]),
   midi.NoteOnEvent(tick=96, channel=0, data=[69, 0]),
   midi.NoteOnEvent(tick=0, channel=0, data=[67, 90]),
   midi.NoteOnEvent(tick=96, channel=0, data=[67, 0]),
   midi.NoteOnEvent(tick=0, channel=0, data=[71, 90]),
   midi.NoteOnEvent(tick=96, channel=0, data=[71, 0]),
   midi.NoteOnEvent(tick=0, channel=0, data=[69, 90]),
   midi.NoteOnEvent(tick=96, channel=0, data=[69, 0]),
   midi.NoteOnEvent(tick=0, channel=0, data=[72, 90]),
   midi.NoteOnEvent(tick=96, channel=0, data=[72, 0]),
   midi.NoteOnEvent(tick=0, channel=0, data=[71, 90]),
   midi.NoteOnEvent(tick=96, channel=0, data=[71, 0]),
   midi.NoteOnEvent(tick=0, channel=0, data=[74, 90]),
   midi.NoteOnEvent(tick=96, channel=0, data=[74, 0]),
   midi.NoteOnEvent(tick=0, channel=0, data=[72, 90]),
   midi.NoteOnEvent(tick=96, channel=0, data=[72, 0]),
   midi.NoteOnEvent(tick=0, channel=0, data=[76, 90]),
   midi.NoteOnEvent(tick=96, channel=0, data=[76, 0]),
   midi.NoteOnEvent(tick=0, channel=0, data=[74, 90]),
   midi.NoteOnEvent(tick=96, channel=0, data=[74, 0]),
   midi.NoteOnEvent(tick=0, channel=0, data=[71, 90]),
   midi.NoteOnEvent(tick=48, channel=0, data=[71, 0]),
   midi.NoteOnEvent(tick=0, channel=0, data=[72, 90]),
   midi.NoteOnEvent(tick=48, channel=0, data=[72, 0]),
   midi.NoteOnEvent(tick=0, channel=0, data=[74, 90]),
   midi.NoteOnEvent(tick=96, channel=0, data=[74, 0]),
   midi.NoteOnEvent(tick=0, channel=0, data=[79, 90]),
   midi.NoteOnEvent(tick=96, channel=0, data=[79, 0]),
   midi.NoteOnEvent(tick=0, channel=0, data=[71, 90]),
   midi.NoteOnEvent(tick=192, channel=0, data=[71, 0]),
   midi.NoteOnEvent(tick=0, channel=0, data=[69, 90]),
   midi.NoteOnEvent(tick=96, channel=0, data=[69, 0]),
   midi.NoteOnEvent(tick=0, channel=0, data=[67, 90]),
   midi.NoteOnEvent(tick=96, channel=0, data=[67, 0]),
   midi.NoteOnEvent(tick=0, channel=0, data=[67, 90]),
   midi.NoteOnEvent(tick=192, channel=0, data=[67, 0]),
   midi.NoteOnEvent(tick=672, channel=0, data=[67, 90]),
   midi.NoteOnEvent(tick=96, channel=0, data=[67, 0]),
   midi.NoteOnEvent(tick=0, channel=0, data=[69, 90]),
   midi.NoteOnEvent(tick=96, channel=0, data=[69, 0]),
   midi.NoteOnEvent(tick=0, channel=0, data=[71, 90]),
   midi.NoteOnEvent(tick=96, channel=0, data=[71, 0]),
   midi.NoteOnEvent(tick=0, channel=0, data=[72, 90]),
   midi.NoteOnEvent(tick=96, channel=0, data=[72, 0]),
   midi.NoteOnEvent(tick=0, channel=0, data=[69, 90]),
   midi.NoteOnEvent(tick=96, channel=0, data=[69, 0]),
   midi.NoteOnEvent(tick=0, channel=0, data=[71, 90]),
   midi.NoteOnEvent(tick=96, channel=0, data=[71, 0]),
   midi.NoteOnEvent(tick=0, channel=0, data=[67, 90]),
   midi.NoteOnEvent(tick=96, channel=0, data=[67, 0]),
   midi.NoteOnEvent(tick=0, channel=0, data=[66, 90]),
   midi.NoteOnEvent(tick=192, channel=0, data=[66, 0]),
   midi.NoteOnEvent(tick=672, channel=0, data=[69, 90]),
   midi.NoteOnEvent(tick=96, channel=0, data=[69, 0]),
   midi.NoteOnEvent(tick=0, channel=0, data=[71, 90]),
   midi.NoteOnEvent(tick=96, channel=0, data=[71, 0]),
   midi.NoteOnEvent(tick=0, channel=0, data=[72, 90]),
   midi.NoteOnEvent(tick=96, channel=0, data=[72, 0]),
   midi.NoteOnEvent(tick=0, channel=0, data=[74, 90]),
   midi.NoteOnEvent(tick=96, channel=0, data=[74, 0]),
   midi.NoteOnEvent(tick=0, channel=0, data=[71, 90]),
   midi.NoteOnEvent(tick=96, channel=0, data=[71, 0]),
   midi.NoteOnEvent(tick=0, channel=0, data=[72, 90]),
   midi.NoteOnEvent(tick=96, channel=0, data=[72, 0]),
   midi.NoteOnEvent(tick=0, channel=0, data=[69, 90]),
   midi.NoteOnEvent(tick=96, channel=0, data=[69, 0]),
   midi.NoteOnEvent(tick=0, channel=0, data=[71, 90]),
   midi.NoteOnEvent(tick=192, channel=0, data=[71, 0]),
   midi.NoteOnEvent(tick=672, channel=0, data=[74, 90]),
   midi.NoteOnEvent(tick=96, channel=0, data=[74, 0]),
   midi.NoteOnEvent(tick=0, channel=0, data=[72, 90]),
   midi.NoteOnEvent(tick=96, channel=0, data=[72, 0]),
   midi.NoteOnEvent(tick=0, channel=0, data=[71, 90]),
   midi.NoteOnEvent(tick=96, channel=0, data=[71, 0]),
   midi.NoteOnEvent(tick=0, channel=0, data=[69, 90]),
   midi.NoteOnEvent(tick=96, channel=0, data=[69, 0]),
   midi.NoteOnEvent(tick=0, channel=0, data=[72, 90]),
   midi.NoteOnEvent(tick=96, channel=0, data=[72, 0]),
   midi.NoteOnEvent(tick=0, channel=0, data=[71, 90]),
   midi.NoteOnEvent(tick=96, channel=0, data=[71, 0]),
   midi.NoteOnEvent(tick=0, channel=0, data=[74, 90]),
   midi.NoteOnEvent(tick=96, channel=0, data=[74, 0]),
   midi.NoteOnEvent(tick=0, channel=0, data=[72, 90]),
   midi.NoteOnEvent(tick=192, channel=0, data=[72, 0]),
   midi.NoteOnEvent(tick=672, channel=0, data=[76, 90]),
   midi.NoteOnEvent(tick=96, channel=0, data=[76, 0]),
   midi.NoteOnEvent(tick=0, channel=0, data=[74, 90]),
   midi.NoteOnEvent(tick=96, channel=0, data=[74, 0]),
   midi.NoteOnEvent(tick=0, channel=0, data=[72, 90]),
   midi.NoteOnEvent(tick=96, channel=0, data=[72, 0]),
   midi.NoteOnEvent(tick=0, channel=0, data=[71, 90]),
   midi.NoteOnEvent(tick=96, channel=0, data=[71, 0]),
   midi.NoteOnEvent(tick=0, channel=0, data=[74, 90]),
   midi.NoteOnEvent(tick=96, channel=0, data=[74, 0]),
   midi.NoteOnEvent(tick=0, channel=0, data=[73, 90]),
   midi.NoteOnEvent(tick=96, channel=0, data=[73, 0]),
   midi.NoteOnEvent(tick=0, channel=0, data=[76, 90]),
   midi.NoteOnEvent(tick=96, channel=0, data=[76, 0]),
   midi.NoteOnEvent(tick=0, channel=0, data=[74, 90]),
   midi.NoteOnEvent(tick=192, channel=0, data=[74, 0]),
   midi.NoteOnEvent(tick=0, channel=0, data=[73, 90]),
   midi.NoteOnEvent(tick=192, channel=0, data=[73, 0]),
   midi.NoteOnEvent(tick=0, channel=0, data=[74, 90]),
   midi.NoteOnEvent(tick=192, channel=0, data=[74, 0]),
   midi.NoteOnEvent(tick=0, channel=0, data=[76, 90]),
   midi.NoteOnEvent(tick=192, channel=0, data=[76, 0]),
   midi.NoteOnEvent(tick=0, channel=0, data=[77, 90]),
   midi.NoteOnEvent(tick=192, channel=0, data=[77, 0]),
   midi.NoteOnEvent(tick=0, channel=0, data=[69, 90]),
   midi.NoteOnEvent(tick=192, channel=0, data=[69, 0]),
   midi.NoteOnEvent(tick=0, channel=0, data=[71, 90]),
   midi.NoteOnEvent(tick=192, channel=0, data=[71, 0]),
   midi.NoteOnEvent(tick=0, channel=0, data=[73, 90]),
   midi.NoteOnEvent(tick=192, channel=0, data=[73, 0]),
   midi.NoteOnEvent(tick=0, channel=0, data=[74, 90]),
   midi.NoteOnEvent(tick=192, channel=0, data=[74, 0]),
   midi.NoteOnEvent(tick=0, channel=0, data=[66, 90]),
   midi.NoteOnEvent(tick=192, channel=0, data=[66, 0]),
   midi.NoteOnEvent(tick=0, channel=0, data=[68, 90]),
   midi.NoteOnEvent(tick=192, channel=0, data=[68, 0]),
   midi.NoteOnEvent(tick=0, channel=0, data=[69, 90]),
   midi.NoteOnEvent(tick=192, channel=0, data=[69, 0]),
   midi.NoteOnEvent(tick=0, channel=0, data=[71, 90]),
   midi.NoteOnEvent(tick=192, channel=0, data=[71, 0]),
   midi.NoteOnEvent(tick=0, channel=0, data=[72, 90]),
   midi.NoteOnEvent(tick=192, channel=0, data=[72, 0]),
   midi.NoteOnEvent(tick=0, channel=0, data=[74, 90]),
   midi.NoteOnEvent(tick=480, channel=0, data=[74, 0]),
   midi.NoteOnEvent(tick=0, channel=0, data=[64, 90]),
   midi.NoteOnEvent(tick=96, channel=0, data=[64, 0]),
   midi.NoteOnEvent(tick=0, channel=0, data=[66, 90]),
   midi.NoteOnEvent(tick=96, channel=0, data=[66, 0]),
   midi.NoteOnEvent(tick=0, channel=0, data=[68, 90]),
   midi.NoteOnEvent(tick=96, channel=0, data=[68, 0]),
   midi.NoteOnEvent(tick=0, channel=0, data=[69, 90]),
   midi.NoteOnEvent(tick=96, channel=0, data=[69, 0]),
   midi.NoteOnEvent(tick=0, channel=0, data=[66, 90]),
   midi.NoteOnEvent(tick=96, channel=0, data=[66, 0]),
   midi.NoteOnEvent(tick=0, channel=0, data=[68, 90]),
   midi.NoteOnEvent(tick=96, channel=0, data=[68, 0]),
   midi.NoteOnEvent(tick=0, channel=0, data=[64, 90]),
   midi.NoteOnEvent(tick=96, channel=0, data=[64, 0]),
   midi.NoteOnEvent(tick=0, channel=0, data=[76, 90]),
   midi.NoteOnEvent(tick=96, channel=0, data=[76, 0]),
   midi.NoteOnEvent(tick=0, channel=0, data=[74, 90]),
   midi.NoteOnEvent(tick=96, channel=0, data=[74, 0]),
   midi.NoteOnEvent(tick=0, channel=0, data=[72, 90]),
   midi.NoteOnEvent(tick=96, channel=0, data=[72, 0]),
   midi.NoteOnEvent(tick=0, channel=0, data=[76, 90]),
   midi.NoteOnEvent(tick=96, channel=0, data=[76, 0]),
   midi.NoteOnEvent(tick=0, channel=0, data=[74, 90]),
   midi.NoteOnEvent(tick=96, channel=0, data=[74, 0]),
   midi.NoteOnEvent(tick=0, channel=0, data=[72, 90]),
   midi.NoteOnEvent(tick=96, channel=0, data=[72, 0]),
   midi.NoteOnEvent(tick=0, channel=0, data=[71, 90]),
   midi.NoteOnEvent(tick=96, channel=0, data=[71, 0]),
   midi.NoteOnEvent(tick=0, channel=0, data=[74, 90]),
   midi.NoteOnEvent(tick=96, channel=0, data=[74, 0]),
   midi.NoteOnEvent(tick=0, channel=0, data=[72, 90]),
   midi.NoteOnEvent(tick=96, channel=0, data=[72, 0]),
   midi.NoteOnEvent(tick=0, channel=0, data=[81, 90]),
   midi.NoteOnEvent(tick=96, channel=0, data=[81, 0]),
   midi.NoteOnEvent(tick=0, channel=0, data=[80, 90]),
   midi.NoteOnEvent(tick=96, channel=0, data=[80, 0]),
   midi.NoteOnEvent(tick=0, channel=0, data=[83, 90]),
   midi.NoteOnEvent(tick=96, channel=0, data=[83, 0]),
   midi.NoteOnEvent(tick=0, channel=0, data=[81, 90]),
   midi.NoteOnEvent(tick=96, channel=0, data=[81, 0]),
   midi.NoteOnEvent(tick=0, channel=0, data=[76, 90]),
   midi.NoteOnEvent(tick=96, channel=0, data=[76, 0]),
   midi.NoteOnEvent(tick=0, channel=0, data=[77, 90]),
   midi.NoteOnEvent(tick=96, channel=0, data=[77, 0]),
   midi.NoteOnEvent(tick=0, channel=0, data=[74, 90]),
   midi.NoteOnEvent(tick=96, channel=0, data=[74, 0]),
   midi.NoteOnEvent(tick=0, channel=0, data=[68, 90]),
   midi.NoteOnEvent(tick=96, channel=0, data=[68, 0]),
   midi.NoteOnEvent(tick=0, channel=0, data=[77, 90]),
   midi.NoteOnEvent(tick=96, channel=0, data=[77, 0]),
   midi.NoteOnEvent(tick=0, channel=0, data=[76, 90]),
   midi.NoteOnEvent(tick=96, channel=0, data=[76, 0]),
   midi.NoteOnEvent(tick=0, channel=0, data=[74, 90]),
   midi.NoteOnEvent(tick=96, channel=0, data=[74, 0]),
   midi.NoteOnEvent(tick=0, channel=0, data=[72, 90]),
   midi.NoteOnEvent(tick=192, channel=0, data=[72, 0]),
   midi.NoteOnEvent(tick=0, channel=0, data=[71, 90]),
   midi.NoteOnEvent(tick=96, channel=0, data=[71, 0]),
   midi.NoteOnEvent(tick=0, channel=0, data=[69, 90]),
   midi.NoteOnEvent(tick=96, channel=0, data=[69, 0]),
   midi.NoteOnEvent(tick=0, channel=0, data=[69, 90]),
   midi.NoteOnEvent(tick=96, channel=0, data=[69, 0]),
   midi.NoteOnEvent(tick=0, channel=0, data=[81, 90]),
   midi.NoteOnEvent(tick=96, channel=0, data=[81, 0]),
   midi.NoteOnEvent(tick=0, channel=0, data=[79, 90]),
   midi.NoteOnEvent(tick=96, channel=0, data=[79, 0]),
   midi.NoteOnEvent(tick=0, channel=0, data=[77, 90]),
   midi.NoteOnEvent(tick=96, channel=0, data=[77, 0]),
   midi.NoteOnEvent(tick=0, channel=0, data=[76, 90]),
   midi.NoteOnEvent(tick=96, channel=0, data=[76, 0]),
   midi.NoteOnEvent(tick=0, channel=0, data=[79, 90]),
   midi.NoteOnEvent(tick=96, channel=0, data=[79, 0]),
   midi.NoteOnEvent(tick=0, channel=0, data=[77, 90]),
   midi.NoteOnEvent(tick=96, channel=0, data=[77, 0]),
   midi.NoteOnEvent(tick=0, channel=0, data=[81, 90]),
   midi.NoteOnEvent(tick=96, channel=0, data=[81, 0]),
   midi.NoteOnEvent(tick=0, channel=0, data=[79, 90]),
   midi.NoteOnEvent(tick=864, channel=0, data=[79, 0]),
   midi.NoteOnEvent(tick=0, channel=0, data=[76, 90]),
   midi.NoteOnEvent(tick=96, channel=0, data=[76, 0]),
   midi.NoteOnEvent(tick=0, channel=0, data=[77, 90]),
   midi.NoteOnEvent(tick=96, channel=0, data=[77, 0]),
   midi.NoteOnEvent(tick=0, channel=0, data=[79, 90]),
   midi.NoteOnEvent(tick=96, channel=0, data=[79, 0]),
   midi.NoteOnEvent(tick=0, channel=0, data=[81, 90]),
   midi.NoteOnEvent(tick=96, channel=0, data=[81, 0]),
   midi.NoteOnEvent(tick=0, channel=0, data=[77, 90]),
   midi.NoteOnEvent(tick=96, channel=0, data=[77, 0]),
   midi.NoteOnEvent(tick=0, channel=0, data=[79, 90]),
   midi.NoteOnEvent(tick=96, channel=0, data=[79, 0]),
   midi.NoteOnEvent(tick=0, channel=0, data=[76, 90]),
   midi.NoteOnEvent(tick=96, channel=0, data=[76, 0]),
   midi.NoteOnEvent(tick=0, channel=0, data=[77, 90]),
   midi.NoteOnEvent(tick=864, channel=0, data=[77, 0]),
   midi.NoteOnEvent(tick=0, channel=0, data=[79, 90]),
   midi.NoteOnEvent(tick=96, channel=0, data=[79, 0]),
   midi.NoteOnEvent(tick=0, channel=0, data=[77, 90]),
   midi.NoteOnEvent(tick=96, channel=0, data=[77, 0]),
   midi.NoteOnEvent(tick=0, channel=0, data=[76, 90]),
   midi.NoteOnEvent(tick=96, channel=0, data=[76, 0]),
   midi.NoteOnEvent(tick=0, channel=0, data=[74, 90]),
   midi.NoteOnEvent(tick=96, channel=0, data=[74, 0]),
   midi.NoteOnEvent(tick=0, channel=0, data=[77, 90]),
   midi.NoteOnEvent(tick=96, channel=0, data=[77, 0]),
   midi.NoteOnEvent(tick=0, channel=0, data=[76, 90]),
   midi.NoteOnEvent(tick=96, channel=0, data=[76, 0]),
   midi.NoteOnEvent(tick=0, channel=0, data=[79, 90]),
   midi.NoteOnEvent(tick=96, channel=0, data=[79, 0]),
   midi.NoteOnEvent(tick=0, channel=0, data=[77, 90]),
   midi.NoteOnEvent(tick=864, channel=0, data=[77, 0]),
   midi.NoteOnEvent(tick=0, channel=0, data=[74, 90]),
   midi.NoteOnEvent(tick=96, channel=0, data=[74, 0]),
   midi.NoteOnEvent(tick=0, channel=0, data=[76, 90]),
   midi.NoteOnEvent(tick=96, channel=0, data=[76, 0]),
   midi.NoteOnEvent(tick=0, channel=0, data=[77, 90]),
   midi.NoteOnEvent(tick=96, channel=0, data=[77, 0]),
   midi.NoteOnEvent(tick=0, channel=0, data=[79, 90]),
   midi.NoteOnEvent(tick=96, channel=0, data=[79, 0]),
   midi.NoteOnEvent(tick=0, channel=0, data=[76, 90]),
   midi.NoteOnEvent(tick=96, channel=0, data=[76, 0]),
   midi.NoteOnEvent(tick=0, channel=0, data=[77, 90]),
   midi.NoteOnEvent(tick=96, channel=0, data=[77, 0]),
   midi.NoteOnEvent(tick=0, channel=0, data=[74, 90]),
   midi.NoteOnEvent(tick=96, channel=0, data=[74, 0]),
   midi.NoteOnEvent(tick=0, channel=0, data=[76, 90]),
   midi.NoteOnEvent(tick=864, channel=0, data=[76, 0]),
   midi.NoteOnEvent(tick=0, channel=0, data=[72, 90]),
   midi.NoteOnEvent(tick=96, channel=0, data=[72, 0]),
   midi.NoteOnEvent(tick=0, channel=0, data=[74, 90]),
   midi.NoteOnEvent(tick=96, channel=0, data=[74, 0]),
   midi.NoteOnEvent(tick=0, channel=0, data=[76, 90]),
   midi.NoteOnEvent(tick=96, channel=0, data=[76, 0]),
   midi.NoteOnEvent(tick=0, channel=0, data=[77, 90]),
   midi.NoteOnEvent(tick=96, channel=0, data=[77, 0]),
   midi.NoteOnEvent(tick=0, channel=0, data=[74, 90]),
   midi.NoteOnEvent(tick=96, channel=0, data=[74, 0]),
   midi.NoteOnEvent(tick=0, channel=0, data=[76, 90]),
   midi.NoteOnEvent(tick=96, channel=0, data=[76, 0]),
   midi.NoteOnEvent(tick=0, channel=0, data=[72, 90]),
   midi.NoteOnEvent(tick=96, channel=0, data=[72, 0]),
   midi.NoteOnEvent(tick=0, channel=0, data=[74, 90]),
   midi.NoteOnEvent(tick=96, channel=0, data=[74, 0]),
   midi.NoteOnEvent(tick=0, channel=0, data=[76, 90]),
   midi.NoteOnEvent(tick=96, channel=0, data=[76, 0]),
   midi.NoteOnEvent(tick=0, channel=0, data=[77, 90]),
   midi.NoteOnEvent(tick=96, channel=0, data=[77, 0]),
   midi.NoteOnEvent(tick=0, channel=0, data=[79, 90]),
   midi.NoteOnEvent(tick=96, channel=0, data=[79, 0]),
   midi.NoteOnEvent(tick=0, channel=0, data=[81, 90]),
   midi.NoteOnEvent(tick=96, channel=0, data=[81, 0]),
   midi.NoteOnEvent(tick=0, channel=0, data=[77, 90]),
   midi.NoteOnEvent(tick=96, channel=0, data=[77, 0]),
   midi.NoteOnEvent(tick=0, channel=0, data=[79, 90]),
   midi.NoteOnEvent(tick=96, channel=0, data=[79, 0]),
   midi.NoteOnEvent(tick=0, channel=0, data=[76, 90]),
   midi.NoteOnEvent(tick=96, channel=0, data=[76, 0]),
   midi.NoteOnEvent(tick=0, channel=0, data=[77, 90]),
   midi.NoteOnEvent(tick=96, channel=0, data=[77, 0]),
   midi.NoteOnEvent(tick=0, channel=0, data=[79, 90]),
   midi.NoteOnEvent(tick=96, channel=0, data=[79, 0]),
   midi.NoteOnEvent(tick=0, channel=0, data=[81, 90]),
   midi.NoteOnEvent(tick=96, channel=0, data=[81, 0]),
   midi.NoteOnEvent(tick=0, channel=0, data=[83, 90]),
   midi.NoteOnEvent(tick=96, channel=0, data=[83, 0]),
   midi.NoteOnEvent(tick=0, channel=0, data=[84, 90]),
   midi.NoteOnEvent(tick=96, channel=0, data=[84, 0]),
   midi.NoteOnEvent(tick=0, channel=0, data=[81, 90]),
   midi.NoteOnEvent(tick=96, channel=0, data=[81, 0]),
   midi.NoteOnEvent(tick=0, channel=0, data=[83, 90]),
   midi.NoteOnEvent(tick=96, channel=0, data=[83, 0]),
   midi.NoteOnEvent(tick=0, channel=0, data=[79, 90]),
   midi.NoteOnEvent(tick=96, channel=0, data=[79, 0]),
   midi.NoteOnEvent(tick=0, channel=0, data=[84, 90]),
   midi.NoteOnEvent(tick=192, channel=0, data=[84, 0]),
   midi.NoteOnEvent(tick=0, channel=0, data=[79, 90]),
   midi.NoteOnEvent(tick=192, channel=0, data=[79, 0]),
   midi.NoteOnEvent(tick=0, channel=0, data=[76, 90]),
   midi.NoteOnEvent(tick=192, channel=0, data=[76, 0]),
   midi.NoteOnEvent(tick=0, channel=0, data=[74, 90]),
   midi.NoteOnEvent(tick=96, channel=0, data=[74, 0]),
   midi.NoteOnEvent(tick=0, channel=0, data=[72, 90]),
   midi.NoteOnEvent(tick=96, channel=0, data=[72, 0]),
   midi.NoteOnEvent(tick=0, channel=0, data=[72, 90]),
   midi.NoteOnEvent(tick=96, channel=0, data=[72, 0]),
   midi.NoteOnEvent(tick=0, channel=0, data=[70, 90]),
   midi.NoteOnEvent(tick=96, channel=0, data=[70, 0]),
   midi.NoteOnEvent(tick=0, channel=0, data=[69, 90]),
   midi.NoteOnEvent(tick=96, channel=0, data=[69, 0]),
   midi.NoteOnEvent(tick=0, channel=0, data=[67, 90]),
   midi.NoteOnEvent(tick=96, channel=0, data=[67, 0]),
   midi.NoteOnEvent(tick=0, channel=0, data=[65, 90]),
   midi.NoteOnEvent(tick=96, channel=0, data=[65, 0]),
   midi.NoteOnEvent(tick=0, channel=0, data=[69, 90]),
   midi.NoteOnEvent(tick=96, channel=0, data=[69, 0]),
   midi.NoteOnEvent(tick=0, channel=0, data=[67, 90]),
   midi.NoteOnEvent(tick=96, channel=0, data=[67, 0]),
   midi.NoteOnEvent(tick=0, channel=0, data=[70, 90]),
   midi.NoteOnEvent(tick=96, channel=0, data=[70, 0]),
   midi.NoteOnEvent(tick=0, channel=0, data=[69, 90]),
   midi.NoteOnEvent(tick=96, channel=0, data=[69, 0]),
   midi.NoteOnEvent(tick=0, channel=0, data=[71, 90]),
   midi.NoteOnEvent(tick=96, channel=0, data=[71, 0]),
   midi.NoteOnEvent(tick=0, channel=0, data=[72, 90]),
   midi.NoteOnEvent(tick=96, channel=0, data=[72, 0]),
   midi.NoteOnEvent(tick=0, channel=0, data=[64, 90]),
   midi.NoteOnEvent(tick=96, channel=0, data=[64, 0]),
   midi.NoteOnEvent(tick=0, channel=0, data=[62, 90]),
   midi.NoteOnEvent(tick=96, channel=0, data=[62, 0]),
   midi.NoteOnEvent(tick=0, channel=0, data=[72, 90]),
   midi.NoteOnEvent(tick=96, channel=0, data=[72, 0]),
   midi.NoteOnEvent(tick=0, channel=0, data=[65, 90]),
   midi.NoteOnEvent(tick=96, channel=0, data=[65, 0]),
   midi.NoteOnEvent(tick=0, channel=0, data=[71, 90]),
   midi.NoteOnEvent(tick=96, channel=0, data=[71, 0]),
   midi.NoteOnEvent(tick=0, channel=0, data=[64, 90]),
   midi.NoteOnEvent(tick=0, channel=0, data=[67, 90]),
   midi.NoteOnEvent(tick=0, channel=0, data=[72, 90]),
   midi.NoteOnEvent(tick=1536, channel=0, data=[64, 0]),
   midi.NoteOnEvent(tick=0, channel=0, data=[67, 0]),
   midi.NoteOnEvent(tick=0, channel=0, data=[72, 0]),
   midi.EndOfTrackEvent(tick=0, data=[])]),
 midi.Track(\
  [midi.TrackNameEvent(tick=0, text='two:', data=[116, 119, 111, 58]),
   midi.KeySignatureEvent(tick=0, data=[0, 0]),
   midi.NoteOnEvent(tick=864, channel=1, data=[48, 90]),
   midi.NoteOnEvent(tick=96, channel=1, data=[48, 0]),
   midi.NoteOnEvent(tick=0, channel=1, data=[50, 90]),
   midi.NoteOnEvent(tick=96, channel=1, data=[50, 0]),
   midi.NoteOnEvent(tick=0, channel=1, data=[52, 90]),
   midi.NoteOnEvent(tick=96, channel=1, data=[52, 0]),
   midi.NoteOnEvent(tick=0, channel=1, data=[53, 90]),
   midi.NoteOnEvent(tick=96, channel=1, data=[53, 0]),
   midi.NoteOnEvent(tick=0, channel=1, data=[50, 90]),
   midi.NoteOnEvent(tick=96, channel=1, data=[50, 0]),
   midi.NoteOnEvent(tick=0, channel=1, data=[52, 90]),
   midi.NoteOnEvent(tick=96, channel=1, data=[52, 0]),
   midi.NoteOnEvent(tick=0, channel=1, data=[48, 90]),
   midi.NoteOnEvent(tick=96, channel=1, data=[48, 0]),
   midi.NoteOnEvent(tick=0, channel=1, data=[55, 90]),
   midi.NoteOnEvent(tick=192, channel=1, data=[55, 0]),
   midi.NoteOnEvent(tick=0, channel=1, data=[43, 90]),
   midi.NoteOnEvent(tick=192, channel=1, data=[43, 0]),
   midi.NoteOnEvent(tick=480, channel=1, data=[55, 90]),
   midi.NoteOnEvent(tick=96, channel=1, data=[55, 0]),
   midi.NoteOnEvent(tick=0, channel=1, data=[57, 90]),
   midi.NoteOnEvent(tick=96, channel=1, data=[57, 0]),
   midi.NoteOnEvent(tick=0, channel=1, data=[59, 90]),
   midi.NoteOnEvent(tick=96, channel=1, data=[59, 0]),
   midi.NoteOnEvent(tick=0, channel=1, data=[60, 90]),
   midi.NoteOnEvent(tick=96, channel=1, data=[60, 0]),
   midi.NoteOnEvent(tick=0, channel=1, data=[57, 90]),
   midi.NoteOnEvent(tick=96, channel=1, data=[57, 0]),
   midi.NoteOnEvent(tick=0, channel=1, data=[59, 90]),
   midi.NoteOnEvent(tick=96, channel=1, data=[59, 0]),
   midi.NoteOnEvent(tick=0, channel=1, data=[55, 90]),
   midi.NoteOnEvent(tick=96, channel=1, data=[55, 0]),
   midi.NoteOnEvent(tick=0, channel=1, data=[60, 90]),
   midi.NoteOnEvent(tick=192, channel=1, data=[60, 0]),
   midi.NoteOnEvent(tick=0, channel=1, data=[59, 90]),
   midi.NoteOnEvent(tick=192, channel=1, data=[59, 0]),
   midi.NoteOnEvent(tick=0, channel=1, data=[60, 90]),
   midi.NoteOnEvent(tick=192, channel=1, data=[60, 0]),
   midi.NoteOnEvent(tick=0, channel=1, data=[62, 90]),
   midi.NoteOnEvent(tick=192, channel=1, data=[62, 0]),
   midi.NoteOnEvent(tick=0, channel=1, data=[64, 90]),
   midi.NoteOnEvent(tick=192, channel=1, data=[64, 0]),
   midi.NoteOnEvent(tick=0, channel=1, data=[55, 90]),
   midi.NoteOnEvent(tick=192, channel=1, data=[55, 0]),
   midi.NoteOnEvent(tick=0, channel=1, data=[57, 90]),
   midi.NoteOnEvent(tick=192, channel=1, data=[57, 0]),
   midi.NoteOnEvent(tick=0, channel=1, data=[59, 90]),
   midi.NoteOnEvent(tick=192, channel=1, data=[59, 0]),
   midi.NoteOnEvent(tick=0, channel=1, data=[60, 90]),
   midi.NoteOnEvent(tick=192, channel=1, data=[60, 0]),
   midi.NoteOnEvent(tick=0, channel=1, data=[52, 90]),
   midi.NoteOnEvent(tick=192, channel=1, data=[52, 0]),
   midi.NoteOnEvent(tick=0, channel=1, data=[54, 90]),
   midi.NoteOnEvent(tick=192, channel=1, data=[54, 0]),
   midi.NoteOnEvent(tick=0, channel=1, data=[55, 90]),
   midi.NoteOnEvent(tick=192, channel=1, data=[55, 0]),
   midi.NoteOnEvent(tick=0, channel=1, data=[57, 90]),
   midi.NoteOnEvent(tick=192, channel=1, data=[57, 0]),
   midi.NoteOnEvent(tick=0, channel=1, data=[59, 90]),
   midi.NoteOnEvent(tick=192, channel=1, data=[59, 0]),
   midi.NoteOnEvent(tick=0, channel=1, data=[60, 90]),
   midi.NoteOnEvent(tick=480, channel=1, data=[60, 0]),
   midi.NoteOnEvent(tick=0, channel=1, data=[50, 90]),
   midi.NoteOnEvent(tick=96, channel=1, data=[50, 0]),
   midi.NoteOnEvent(tick=0, channel=1, data=[52, 90]),
   midi.NoteOnEvent(tick=96, channel=1, data=[52, 0]),
   midi.NoteOnEvent(tick=0, channel=1, data=[54, 90]),
   midi.NoteOnEvent(tick=96, channel=1, data=[54, 0]),
   midi.NoteOnEvent(tick=0, channel=1, data=[55, 90]),
   midi.NoteOnEvent(tick=96, channel=1, data=[55, 0]),
   midi.NoteOnEvent(tick=0, channel=1, data=[52, 90]),
   midi.NoteOnEvent(tick=96, channel=1, data=[52, 0]),
   midi.NoteOnEvent(tick=0, channel=1, data=[54, 90]),
   midi.NoteOnEvent(tick=96, channel=1, data=[54, 0]),
   midi.NoteOnEvent(tick=0, channel=1, data=[50, 90]),
   midi.NoteOnEvent(tick=96, channel=1, data=[50, 0]),
   midi.NoteOnEvent(tick=0, channel=1, data=[55, 90]),
   midi.NoteOnEvent(tick=192, channel=1, data=[55, 0]),
   midi.NoteOnEvent(tick=0, channel=1, data=[47, 90]),
   midi.NoteOnEvent(tick=192, channel=1, data=[47, 0]),
   midi.NoteOnEvent(tick=0, channel=1, data=[48, 90]),
   midi.NoteOnEvent(tick=192, channel=1, data=[48, 0]),
   midi.NoteOnEvent(tick=0, channel=1, data=[50, 90]),
   midi.NoteOnEvent(tick=192, channel=1, data=[50, 0]),
   midi.NoteOnEvent(tick=0, channel=1, data=[52, 90]),
   midi.NoteOnEvent(tick=192, channel=1, data=[52, 0]),
   midi.NoteOnEvent(tick=0, channel=1, data=[54, 90]),
   midi.NoteOnEvent(tick=192, channel=1, data=[54, 0]),
   midi.NoteOnEvent(tick=0, channel=1, data=[55, 90]),
   midi.NoteOnEvent(tick=192, channel=1, data=[55, 0]),
   midi.NoteOnEvent(tick=0, channel=1, data=[52, 90]),
   midi.NoteOnEvent(tick=192, channel=1, data=[52, 0]),
   midi.NoteOnEvent(tick=0, channel=1, data=[47, 90]),
   midi.NoteOnEvent(tick=288, channel=1, data=[47, 0]),
   midi.NoteOnEvent(tick=0, channel=1, data=[48, 90]),
   midi.NoteOnEvent(tick=96, channel=1, data=[48, 0]),
   midi.NoteOnEvent(tick=0, channel=1, data=[50, 90]),
   midi.NoteOnEvent(tick=192, channel=1, data=[50, 0]),
   midi.NoteOnEvent(tick=0, channel=1, data=[38, 90]),
   midi.NoteOnEvent(tick=192, channel=1, data=[38, 0]),
   midi.NoteOnEvent(tick=96, channel=1, data=[43, 90]),
   midi.NoteOnEvent(tick=96, channel=1, data=[43, 0]),
   midi.NoteOnEvent(tick=0, channel=1, data=[45, 90]),
   midi.NoteOnEvent(tick=96, channel=1, data=[45, 0]),
   midi.NoteOnEvent(tick=0, channel=1, data=[47, 90]),
   midi.NoteOnEvent(tick=96, channel=1, data=[47, 0]),
   midi.NoteOnEvent(tick=0, channel=1, data=[48, 90]),
   midi.NoteOnEvent(tick=96, channel=1, data=[48, 0]),
   midi.NoteOnEvent(tick=0, channel=1, data=[45, 90]),
   midi.NoteOnEvent(tick=96, channel=1, data=[45, 0]),
   midi.NoteOnEvent(tick=0, channel=1, data=[47, 90]),
   midi.NoteOnEvent(tick=96, channel=1, data=[47, 0]),
   midi.NoteOnEvent(tick=0, channel=1, data=[43, 90]),
   midi.NoteOnEvent(tick=96, channel=1, data=[43, 0]),
   midi.NoteOnEvent(tick=0, channel=1, data=[50, 90]),
   midi.NoteOnEvent(tick=192, channel=1, data=[50, 0]),
   midi.NoteOnEvent(tick=0, channel=1, data=[55, 90]),
   midi.NoteOnEvent(tick=192, channel=1, data=[55, 0]),
   midi.NoteOnEvent(tick=0, channel=1, data=[54, 90]),
   midi.NoteOnEvent(tick=192, channel=1, data=[54, 0]),
   midi.NoteOnEvent(tick=0, channel=1, data=[55, 90]),
   midi.NoteOnEvent(tick=192, channel=1, data=[55, 0]),
   midi.NoteOnEvent(tick=0, channel=1, data=[57, 90]),
   midi.NoteOnEvent(tick=96, channel=1, data=[57, 0]),
   midi.NoteOnEvent(tick=0, channel=1, data=[50, 90]),
   midi.NoteOnEvent(tick=96, channel=1, data=[50, 0]),
   midi.NoteOnEvent(tick=0, channel=1, data=[52, 90]),
   midi.NoteOnEvent(tick=96, channel=1, data=[52, 0]),
   midi.NoteOnEvent(tick=0, channel=1, data=[54, 90]),
   midi.NoteOnEvent(tick=96, channel=1, data=[54, 0]),
   midi.NoteOnEvent(tick=0, channel=1, data=[55, 90]),
   midi.NoteOnEvent(tick=96, channel=1, data=[55, 0]),
   midi.NoteOnEvent(tick=0, channel=1, data=[52, 90]),
   midi.NoteOnEvent(tick=96, channel=1, data=[52, 0]),
   midi.NoteOnEvent(tick=0, channel=1, data=[54, 90]),
   midi.NoteOnEvent(tick=96, channel=1, data=[54, 0]),
   midi.NoteOnEvent(tick=0, channel=1, data=[50, 90]),
   midi.NoteOnEvent(tick=96, channel=1, data=[50, 0]),
   midi.NoteOnEvent(tick=0, channel=1, data=[57, 90]),
   midi.NoteOnEvent(tick=192, channel=1, data=[57, 0]),
   midi.NoteOnEvent(tick=0, channel=1, data=[62, 90]),
   midi.NoteOnEvent(tick=192, channel=1, data=[62, 0]),
   midi.NoteOnEvent(tick=0, channel=1, data=[60, 90]),
   midi.NoteOnEvent(tick=192, channel=1, data=[60, 0]),
   midi.NoteOnEvent(tick=0, channel=1, data=[62, 90]),
   midi.NoteOnEvent(tick=192, channel=1, data=[62, 0]),
   midi.NoteOnEvent(tick=0, channel=1, data=[55, 90]),
   midi.NoteOnEvent(tick=96, channel=1, data=[55, 0]),
   midi.NoteOnEvent(tick=0, channel=1, data=[67, 90]),
   midi.NoteOnEvent(tick=96, channel=1, data=[67, 0]),
   midi.NoteOnEvent(tick=0, channel=1, data=[65, 90]),
   midi.NoteOnEvent(tick=96, channel=1, data=[65, 0]),
   midi.NoteOnEvent(tick=0, channel=1, data=[64, 90]),
   midi.NoteOnEvent(tick=96, channel=1, data=[64, 0]),
   midi.NoteOnEvent(tick=0, channel=1, data=[62, 90]),
   midi.NoteOnEvent(tick=96, channel=1, data=[62, 0]),
   midi.NoteOnEvent(tick=0, channel=1, data=[65, 90]),
   midi.NoteOnEvent(tick=96, channel=1, data=[65, 0]),
   midi.NoteOnEvent(tick=0, channel=1, data=[64, 90]),
   midi.NoteOnEvent(tick=96, channel=1, data=[64, 0]),
   midi.NoteOnEvent(tick=0, channel=1, data=[67, 90]),
   midi.NoteOnEvent(tick=96, channel=1, data=[67, 0]),
   midi.NoteOnEvent(tick=0, channel=1, data=[65, 90]),
   midi.NoteOnEvent(tick=192, channel=1, data=[65, 0]),
   midi.NoteOnEvent(tick=0, channel=1, data=[64, 90]),
   midi.NoteOnEvent(tick=192, channel=1, data=[64, 0]),
   midi.NoteOnEvent(tick=0, channel=1, data=[65, 90]),
   midi.NoteOnEvent(tick=192, channel=1, data=[65, 0]),
   midi.NoteOnEvent(tick=0, channel=1, data=[62, 90]),
   midi.NoteOnEvent(tick=192, channel=1, data=[62, 0]),
   midi.NoteOnEvent(tick=0, channel=1, data=[64, 90]),
   midi.NoteOnEvent(tick=96, channel=1, data=[64, 0]),
   midi.NoteOnEvent(tick=0, channel=1, data=[69, 90]),
   midi.NoteOnEvent(tick=96, channel=1, data=[69, 0]),
   midi.NoteOnEvent(tick=0, channel=1, data=[67, 90]),
   midi.NoteOnEvent(tick=96, channel=1, data=[67, 0]),
   midi.NoteOnEvent(tick=0, channel=1, data=[65, 90]),
   midi.NoteOnEvent(tick=96, channel=1, data=[65, 0]),
   midi.NoteOnEvent(tick=0, channel=1, data=[64, 90]),
   midi.NoteOnEvent(tick=96, channel=1, data=[64, 0]),
   midi.NoteOnEvent(tick=0, channel=1, data=[67, 90]),
   midi.NoteOnEvent(tick=96, channel=1, data=[67, 0]),
   midi.NoteOnEvent(tick=0, channel=1, data=[65, 90]),
   midi.NoteOnEvent(tick=96, channel=1, data=[65, 0]),
   midi.NoteOnEvent(tick=0, channel=1, data=[69, 90]),
   midi.NoteOnEvent(tick=96, channel=1, data=[69, 0]),
   midi.NoteOnEvent(tick=0, channel=1, data=[67, 90]),
   midi.NoteOnEvent(tick=192, channel=1, data=[67, 0]),
   midi.NoteOnEvent(tick=0, channel=1, data=[65, 90]),
   midi.NoteOnEvent(tick=192, channel=1, data=[65, 0]),
   midi.NoteOnEvent(tick=0, channel=1, data=[67, 90]),
   midi.NoteOnEvent(tick=192, channel=1, data=[67, 0]),
   midi.NoteOnEvent(tick=0, channel=1, data=[64, 90]),
   midi.NoteOnEvent(tick=192, channel=1, data=[64, 0]),
   midi.NoteOnEvent(tick=0, channel=1, data=[65, 90]),
   midi.NoteOnEvent(tick=96, channel=1, data=[65, 0]),
   midi.NoteOnEvent(tick=0, channel=1, data=[70, 90]),
   midi.NoteOnEvent(tick=96, channel=1, data=[70, 0]),
   midi.NoteOnEvent(tick=0, channel=1, data=[69, 90]),
   midi.NoteOnEvent(tick=96, channel=1, data=[69, 0]),
   midi.NoteOnEvent(tick=0, channel=1, data=[67, 90]),
   midi.NoteOnEvent(tick=96, channel=1, data=[67, 0]),
   midi.NoteOnEvent(tick=0, channel=1, data=[65, 90]),
   midi.NoteOnEvent(tick=96, channel=1, data=[65, 0]),
   midi.NoteOnEvent(tick=0, channel=1, data=[69, 90]),
   midi.NoteOnEvent(tick=96, channel=1, data=[69, 0]),
   midi.NoteOnEvent(tick=0, channel=1, data=[67, 90]),
   midi.NoteOnEvent(tick=96, channel=1, data=[67, 0]),
   midi.NoteOnEvent(tick=0, channel=1, data=[70, 90]),
   midi.NoteOnEvent(tick=96, channel=1, data=[70, 0]),
   midi.NoteOnEvent(tick=0, channel=1, data=[69, 90]),
   midi.NoteOnEvent(tick=96, channel=1, data=[69, 0]),
   midi.NoteOnEvent(tick=0, channel=1, data=[67, 90]),
   midi.NoteOnEvent(tick=96, channel=1, data=[67, 0]),
   midi.NoteOnEvent(tick=0, channel=1, data=[65, 90]),
   midi.NoteOnEvent(tick=96, channel=1, data=[65, 0]),
   midi.NoteOnEvent(tick=0, channel=1, data=[64, 90]),
   midi.NoteOnEvent(tick=96, channel=1, data=[64, 0]),
   midi.NoteOnEvent(tick=0, channel=1, data=[62, 90]),
   midi.NoteOnEvent(tick=96, channel=1, data=[62, 0]),
   midi.NoteOnEvent(tick=0, channel=1, data=[65, 90]),
   midi.NoteOnEvent(tick=96, channel=1, data=[65, 0]),
   midi.NoteOnEvent(tick=0, channel=1, data=[64, 90]),
   midi.NoteOnEvent(tick=96, channel=1, data=[64, 0]),
   midi.NoteOnEvent(tick=0, channel=1, data=[67, 90]),
   midi.NoteOnEvent(tick=96, channel=1, data=[67, 0]),
   midi.NoteOnEvent(tick=0, channel=1, data=[65, 90]),
   midi.NoteOnEvent(tick=96, channel=1, data=[65, 0]),
   midi.NoteOnEvent(tick=0, channel=1, data=[64, 90]),
   midi.NoteOnEvent(tick=96, channel=1, data=[64, 0]),
   midi.NoteOnEvent(tick=0, channel=1, data=[62, 90]),
   midi.NoteOnEvent(tick=96, channel=1, data=[62, 0]),
   midi.NoteOnEvent(tick=0, channel=1, data=[60, 90]),
   midi.NoteOnEvent(tick=96, channel=1, data=[60, 0]),
   midi.NoteOnEvent(tick=0, channel=1, data=[59, 90]),
   midi.NoteOnEvent(tick=96, channel=1, data=[59, 0]),
   midi.NoteOnEvent(tick=0, channel=1, data=[62, 90]),
   midi.NoteOnEvent(tick=96, channel=1, data=[62, 0]),
   midi.NoteOnEvent(tick=0, channel=1, data=[60, 90]),
   midi.NoteOnEvent(tick=96, channel=1, data=[60, 0]),
   midi.NoteOnEvent(tick=0, channel=1, data=[64, 90]),
   midi.NoteOnEvent(tick=96, channel=1, data=[64, 0]),
   midi.NoteOnEvent(tick=0, channel=1, data=[62, 90]),
   midi.NoteOnEvent(tick=96, channel=1, data=[62, 0]),
   midi.NoteOnEvent(tick=0, channel=1, data=[60, 90]),
   midi.NoteOnEvent(tick=96, channel=1, data=[60, 0]),
   midi.NoteOnEvent(tick=0, channel=1, data=[59, 90]),
   midi.NoteOnEvent(tick=96, channel=1, data=[59, 0]),
   midi.NoteOnEvent(tick=0, channel=1, data=[57, 90]),
   midi.NoteOnEvent(tick=96, channel=1, data=[57, 0]),
   midi.NoteOnEvent(tick=0, channel=1, data=[56, 90]),
   midi.NoteOnEvent(tick=96, channel=1, data=[56, 0]),
   midi.NoteOnEvent(tick=0, channel=1, data=[59, 90]),
   midi.NoteOnEvent(tick=96, channel=1, data=[59, 0]),
   midi.NoteOnEvent(tick=0, channel=1, data=[57, 90]),
   midi.NoteOnEvent(tick=96, channel=1, data=[57, 0]),
   midi.NoteOnEvent(tick=0, channel=1, data=[60, 90]),
   midi.NoteOnEvent(tick=96, channel=1, data=[60, 0]),
   midi.NoteOnEvent(tick=0, channel=1, data=[59, 90]),
   midi.NoteOnEvent(tick=192, channel=1, data=[59, 0]),
   midi.NoteOnEvent(tick=0, channel=1, data=[52, 90]),
   midi.NoteOnEvent(tick=192, channel=1, data=[52, 0]),
   midi.NoteOnEvent(tick=0, channel=1, data=[62, 90]),
   midi.NoteOnEvent(tick=288, channel=1, data=[62, 0]),
   midi.NoteOnEvent(tick=0, channel=1, data=[64, 90]),
   midi.NoteOnEvent(tick=96, channel=1, data=[64, 0]),
   midi.NoteOnEvent(tick=0, channel=1, data=[60, 90]),
   midi.NoteOnEvent(tick=96, channel=1, data=[60, 0]),
   midi.NoteOnEvent(tick=0, channel=1, data=[59, 90]),
   midi.NoteOnEvent(tick=96, channel=1, data=[59, 0]),
   midi.NoteOnEvent(tick=0, channel=1, data=[57, 90]),
   midi.NoteOnEvent(tick=96, channel=1, data=[57, 0]),
   midi.NoteOnEvent(tick=0, channel=1, data=[55, 90]),
   midi.NoteOnEvent(tick=96, channel=1, data=[55, 0]),
   midi.NoteOnEvent(tick=0, channel=1, data=[54, 90]),
   midi.NoteOnEvent(tick=96, channel=1, data=[54, 0]),
   midi.NoteOnEvent(tick=0, channel=1, data=[57, 90]),
   midi.NoteOnEvent(tick=96, channel=1, data=[57, 0]),
   midi.NoteOnEvent(tick=0, channel=1, data=[56, 90]),
   midi.NoteOnEvent(tick=96, channel=1, data=[56, 0]),
   midi.NoteOnEvent(tick=0, channel=1, data=[59, 90]),
   midi.NoteOnEvent(tick=96, channel=1, data=[59, 0]),
   midi.NoteOnEvent(tick=0, channel=1, data=[57, 90]),
   midi.NoteOnEvent(tick=96, channel=1, data=[57, 0]),
   midi.NoteOnEvent(tick=0, channel=1, data=[60, 90]),
   midi.NoteOnEvent(tick=96, channel=1, data=[60, 0]),
   midi.NoteOnEvent(tick=0, channel=1, data=[59, 90]),
   midi.NoteOnEvent(tick=96, channel=1, data=[59, 0]),
   midi.NoteOnEvent(tick=0, channel=1, data=[62, 90]),
   midi.NoteOnEvent(tick=96, channel=1, data=[62, 0]),
   midi.NoteOnEvent(tick=0, channel=1, data=[60, 90]),
   midi.NoteOnEvent(tick=96, channel=1, data=[60, 0]),
   midi.NoteOnEvent(tick=0, channel=1, data=[64, 90]),
   midi.NoteOnEvent(tick=96, channel=1, data=[64, 0]),
   midi.NoteOnEvent(tick=0, channel=1, data=[62, 90]),
   midi.NoteOnEvent(tick=96, channel=1, data=[62, 0]),
   midi.NoteOnEvent(tick=0, channel=1, data=[65, 90]),
   midi.NoteOnEvent(tick=96, channel=1, data=[65, 0]),
   midi.NoteOnEvent(tick=0, channel=1, data=[64, 90]),
   midi.NoteOnEvent(tick=192, channel=1, data=[64, 0]),
   midi.NoteOnEvent(tick=0, channel=1, data=[57, 90]),
   midi.NoteOnEvent(tick=192, channel=1, data=[57, 0]),
   midi.NoteOnEvent(tick=0, channel=1, data=[64, 90]),
   midi.NoteOnEvent(tick=192, channel=1, data=[64, 0]),
   midi.NoteOnEvent(tick=0, channel=1, data=[52, 90]),
   midi.NoteOnEvent(tick=192, channel=1, data=[52, 0]),
   midi.NoteOnEvent(tick=0, channel=1, data=[57, 90]),
   midi.NoteOnEvent(tick=192, channel=1, data=[57, 0]),
   midi.NoteOnEvent(tick=0, channel=1, data=[45, 90]),
   midi.NoteOnEvent(tick=192, channel=1, data=[45, 0]),
   midi.NoteOnEvent(tick=480, channel=1, data=[64, 90]),
   midi.NoteOnEvent(tick=96, channel=1, data=[64, 0]),
   midi.NoteOnEvent(tick=0, channel=1, data=[62, 90]),
   midi.NoteOnEvent(tick=96, channel=1, data=[62, 0]),
   midi.NoteOnEvent(tick=0, channel=1, data=[60, 90]),
   midi.NoteOnEvent(tick=96, channel=1, data=[60, 0]),
   midi.NoteOnEvent(tick=0, channel=1, data=[59, 90]),
   midi.NoteOnEvent(tick=96, channel=1, data=[59, 0]),
   midi.NoteOnEvent(tick=0, channel=1, data=[62, 90]),
   midi.NoteOnEvent(tick=96, channel=1, data=[62, 0]),
   midi.NoteOnEvent(tick=0, channel=1, data=[61, 90]),
   midi.NoteOnEvent(tick=96, channel=1, data=[61, 0]),
   midi.NoteOnEvent(tick=0, channel=1, data=[64, 90]),
   midi.NoteOnEvent(tick=96, channel=1, data=[64, 0]),
   midi.NoteOnEvent(tick=0, channel=1, data=[62, 90]),
   midi.NoteOnEvent(tick=864, channel=1, data=[62, 0]),
   midi.NoteOnEvent(tick=0, channel=1, data=[57, 90]),
   midi.NoteOnEvent(tick=96, channel=1, data=[57, 0]),
   midi.NoteOnEvent(tick=0, channel=1, data=[59, 90]),
   midi.NoteOnEvent(tick=96, channel=1, data=[59, 0]),
   midi.NoteOnEvent(tick=0, channel=1, data=[60, 90]),
   midi.NoteOnEvent(tick=96, channel=1, data=[60, 0]),
   midi.NoteOnEvent(tick=0, channel=1, data=[62, 90]),
   midi.NoteOnEvent(tick=96, channel=1, data=[62, 0]),
   midi.NoteOnEvent(tick=0, channel=1, data=[59, 90]),
   midi.NoteOnEvent(tick=96, channel=1, data=[59, 0]),
   midi.NoteOnEvent(tick=0, channel=1, data=[60, 90]),
   midi.NoteOnEvent(tick=96, channel=1, data=[60, 0]),
   midi.NoteOnEvent(tick=0, channel=1, data=[57, 90]),
   midi.NoteOnEvent(tick=96, channel=1, data=[57, 0]),
   midi.NoteOnEvent(tick=0, channel=1, data=[59, 90]),
   midi.NoteOnEvent(tick=864, channel=1, data=[59, 0]),
   midi.NoteOnEvent(tick=0, channel=1, data=[62, 90]),
   midi.NoteOnEvent(tick=96, channel=1, data=[62, 0]),
   midi.NoteOnEvent(tick=0, channel=1, data=[60, 90]),
   midi.NoteOnEvent(tick=96, channel=1, data=[60, 0]),
   midi.NoteOnEvent(tick=0, channel=1, data=[59, 90]),
   midi.NoteOnEvent(tick=96, channel=1, data=[59, 0]),
   midi.NoteOnEvent(tick=0, channel=1, data=[57, 90]),
   midi.NoteOnEvent(tick=96, channel=1, data=[57, 0]),
   midi.NoteOnEvent(tick=0, channel=1, data=[60, 90]),
   midi.NoteOnEvent(tick=96, channel=1, data=[60, 0]),
   midi.NoteOnEvent(tick=0, channel=1, data=[59, 90]),
   midi.NoteOnEvent(tick=96, channel=1, data=[59, 0]),
   midi.NoteOnEvent(tick=0, channel=1, data=[62, 90]),
   midi.NoteOnEvent(tick=96, channel=1, data=[62, 0]),
   midi.NoteOnEvent(tick=0, channel=1, data=[60, 90]),
   midi.NoteOnEvent(tick=864, channel=1, data=[60, 0]),
   midi.NoteOnEvent(tick=0, channel=1, data=[55, 90]),
   midi.NoteOnEvent(tick=96, channel=1, data=[55, 0]),
   midi.NoteOnEvent(tick=0, channel=1, data=[57, 90]),
   midi.NoteOnEvent(tick=96, channel=1, data=[57, 0]),
   midi.NoteOnEvent(tick=0, channel=1, data=[58, 90]),
   midi.NoteOnEvent(tick=96, channel=1, data=[58, 0]),
   midi.NoteOnEvent(tick=0, channel=1, data=[60, 90]),
   midi.NoteOnEvent(tick=96, channel=1, data=[60, 0]),
   midi.NoteOnEvent(tick=0, channel=1, data=[57, 90]),
   midi.NoteOnEvent(tick=96, channel=1, data=[57, 0]),
   midi.NoteOnEvent(tick=0, channel=1, data=[58, 90]),
   midi.NoteOnEvent(tick=96, channel=1, data=[58, 0]),
   midi.NoteOnEvent(tick=0, channel=1, data=[55, 90]),
   midi.NoteOnEvent(tick=96, channel=1, data=[55, 0]),
   midi.NoteOnEvent(tick=0, channel=1, data=[57, 90]),
   midi.NoteOnEvent(tick=192, channel=1, data=[57, 0]),
   midi.NoteOnEvent(tick=0, channel=1, data=[58, 90]),
   midi.NoteOnEvent(tick=192, channel=1, data=[58, 0]),
   midi.NoteOnEvent(tick=0, channel=1, data=[57, 90]),
   midi.NoteOnEvent(tick=192, channel=1, data=[57, 0]),
   midi.NoteOnEvent(tick=0, channel=1, data=[55, 90]),
   midi.NoteOnEvent(tick=192, channel=1, data=[55, 0]),
   midi.NoteOnEvent(tick=0, channel=1, data=[53, 90]),
   midi.NoteOnEvent(tick=192, channel=1, data=[53, 0]),
   midi.NoteOnEvent(tick=0, channel=1, data=[62, 90]),
   midi.NoteOnEvent(tick=192, channel=1, data=[62, 0]),
   midi.NoteOnEvent(tick=0, channel=1, data=[60, 90]),
   midi.NoteOnEvent(tick=192, channel=1, data=[60, 0]),
   midi.NoteOnEvent(tick=0, channel=1, data=[58, 90]),
   midi.NoteOnEvent(tick=192, channel=1, data=[58, 0]),
   midi.NoteOnEvent(tick=0, channel=1, data=[57, 90]),
   midi.NoteOnEvent(tick=192, channel=1, data=[57, 0]),
   midi.NoteOnEvent(tick=0, channel=1, data=[65, 90]),
   midi.NoteOnEvent(tick=192, channel=1, data=[65, 0]),
   midi.NoteOnEvent(tick=0, channel=1, data=[64, 90]),
   midi.NoteOnEvent(tick=192, channel=1, data=[64, 0]),
   midi.NoteOnEvent(tick=0, channel=1, data=[62, 90]),
   midi.NoteOnEvent(tick=192, channel=1, data=[62, 0]),
   midi.NoteOnEvent(tick=0, channel=1, data=[64, 90]),
   midi.NoteOnEvent(tick=96, channel=1, data=[64, 0]),
   midi.NoteOnEvent(tick=0, channel=1, data=[50, 90]),
   midi.NoteOnEvent(tick=96, channel=1, data=[50, 0]),
   midi.NoteOnEvent(tick=0, channel=1, data=[52, 90]),
   midi.NoteOnEvent(tick=96, channel=1, data=[52, 0]),
   midi.NoteOnEvent(tick=0, channel=1, data=[53, 90]),
   midi.NoteOnEvent(tick=96, channel=1, data=[53, 0]),
   midi.NoteOnEvent(tick=0, channel=1, data=[55, 90]),
   midi.NoteOnEvent(tick=96, channel=1, data=[55, 0]),
   midi.NoteOnEvent(tick=0, channel=1, data=[52, 90]),
   midi.NoteOnEvent(tick=96, channel=1, data=[52, 0]),
   midi.NoteOnEvent(tick=0, channel=1, data=[53, 90]),
   midi.NoteOnEvent(tick=96, channel=1, data=[53, 0]),
   midi.NoteOnEvent(tick=0, channel=1, data=[50, 90]),
   midi.NoteOnEvent(tick=96, channel=1, data=[50, 0]),
   midi.NoteOnEvent(tick=0, channel=1, data=[52, 90]),
   midi.NoteOnEvent(tick=192, channel=1, data=[52, 0]),
   midi.NoteOnEvent(tick=0, channel=1, data=[48, 90]),
   midi.NoteOnEvent(tick=192, channel=1, data=[48, 0]),
   midi.NoteOnEvent(tick=0, channel=1, data=[50, 90]),
   midi.NoteOnEvent(tick=192, channel=1, data=[50, 0]),
   midi.NoteOnEvent(tick=0, channel=1, data=[52, 90]),
   midi.NoteOnEvent(tick=192, channel=1, data=[52, 0]),
   midi.NoteOnEvent(tick=0, channel=1, data=[53, 90]),
   midi.NoteOnEvent(tick=96, channel=1, data=[53, 0]),
   midi.NoteOnEvent(tick=0, channel=1, data=[50, 90]),
   midi.NoteOnEvent(tick=96, channel=1, data=[50, 0]),
   midi.NoteOnEvent(tick=0, channel=1, data=[52, 90]),
   midi.NoteOnEvent(tick=96, channel=1, data=[52, 0]),
   midi.NoteOnEvent(tick=0, channel=1, data=[53, 90]),
   midi.NoteOnEvent(tick=96, channel=1, data=[53, 0]),
   midi.NoteOnEvent(tick=0, channel=1, data=[55, 90]),
   midi.NoteOnEvent(tick=192, channel=1, data=[55, 0]),
   midi.NoteOnEvent(tick=0, channel=1, data=[43, 90]),
   midi.NoteOnEvent(tick=192, channel=1, data=[43, 0]),
   midi.NoteOnEvent(tick=0, channel=1, data=[48, 90]),
   midi.NoteOnEvent(tick=0, channel=1, data=[36, 90]),
   midi.NoteOnEvent(tick=1536, channel=1, data=[48, 0]),
   midi.NoteOnEvent(tick=0, channel=1, data=[36, 0]),
   midi.EndOfTrackEvent(tick=0, data=[])])])